<svg width="27" height="27" viewBox="0 0 27 27" fill="none" xmlns="http://www.w3.org/2000/svg">
<path d="M8.08673 0.718067C7.92253 0.84037 7.79938 1.20728 7.79938 1.53342C7.79938 1.9411 8.53827 2.0634 10.6729 2.0634C13.259 2.0634 13.5464 1.98186 13.5464 1.24805C13.5464 0.514229 13.259 0.432693 10.9602 0.432693C9.52347 0.432693 8.20988 0.554996 8.08673 0.718067Z" fill="white"/>
<path d="M8.00457 3.28644C7.47092 4.14256 8.33297 4.50947 10.9191 4.50947C13.2589 4.50947 13.5463 4.42793 13.5463 3.69411C13.5463 2.96029 13.2589 2.87876 10.9191 2.87876C9.44131 2.87876 8.12772 3.04183 8.00457 3.28644Z" fill="white"/>
<path d="M-6.10352e-05 5.12098C-6.10352e-05 6.14017 0.0409888 6.14017 3.48917 6.14017C6.93736 6.14017 6.97841 6.14017 6.97841 5.12098C6.97841 4.10179 6.93736 4.10179 3.48917 4.10179C0.0409888 4.10179 -6.10352e-05 4.10179 -6.10352e-05 5.12098Z" fill="white"/>
<path d="M17.2408 4.79487C16.0914 5.16178 13.9979 5.36561 11.617 5.32485L7.79938 5.28408V13.2745V21.2242H10.6729H13.5464L13.5874 13.9676C13.6285 10.0131 13.7516 7.15939 13.8337 7.64861C13.9158 8.17859 14.08 8.58626 14.2031 8.58626C14.3673 8.58626 20.4017 6.99632 21.2227 6.75172C21.5921 6.62941 21.6332 6.2625 21.3048 5.32485C20.8122 3.93875 20.1554 3.81644 17.2408 4.79487Z" fill="white"/>
<path d="M-6.10352e-05 14.0899V21.2242H3.48917H6.97841V14.0899V6.95556H3.48917H-6.10352e-05V14.0899ZM5.54166 10.4208V12.4592H3.48917H1.43668L1.31353 10.8693C1.10828 8.42319 1.35458 8.09705 3.57127 8.26012L5.54166 8.38243V10.4208Z" fill="white"/>
<path d="M19.7039 8.01552C18.6776 8.30089 17.0357 8.74934 16.0505 8.99394C14.9011 9.27932 14.4085 9.60546 14.6548 9.85006C15.0653 10.2577 21.1817 8.83087 21.8795 8.17859C22.5363 7.56707 21.5511 7.48554 19.7039 8.01552Z" fill="white"/>
<path d="M18.3493 10.2169C16.7894 10.6246 15.4347 11.073 15.2705 11.2361C15.1474 11.3584 15.5579 13.6006 16.2147 16.169C17.1178 19.8381 17.5283 20.8165 17.9798 20.6127C18.3082 20.4904 19.8271 20.0827 21.3049 19.7158C22.7826 19.3489 24.1783 18.9412 24.3836 18.7374C24.5888 18.5743 24.2194 16.4544 23.5626 13.9268C22.7005 10.6246 22.2079 9.40156 21.7564 9.44233C21.428 9.44233 19.8681 9.80924 18.3493 10.2169Z" fill="white"/>
<path d="M21.1817 20.572C17.8567 21.5096 17.4051 21.8358 18.0209 22.7734C18.3082 23.2219 19.0061 23.1403 21.7974 22.4065C23.6857 21.9173 25.3277 21.4281 25.3688 21.3873C25.6151 21.2242 24.9993 19.5935 24.712 19.6343C24.5478 19.6751 22.9468 20.0827 21.1817 20.572Z" fill="white"/>
<path d="M-6.10352e-05 22.4472C-6.10352e-05 22.6918 1.43668 22.8549 3.48917 22.8549C5.54166 22.8549 6.97841 22.6918 6.97841 22.4472C6.97841 22.2026 5.54166 22.0395 3.48917 22.0395C1.43668 22.0395 -6.10352e-05 22.2026 -6.10352e-05 22.4472Z" fill="white"/>
<path d="M7.79938 22.4472C7.79938 22.6918 9.03087 22.8549 10.6729 22.8549C12.3149 22.8549 13.5464 22.6918 13.5464 22.4472C13.5464 22.2026 12.3149 22.0395 10.6729 22.0395C9.03087 22.0395 7.79938 22.2026 7.79938 22.4472Z" fill="white"/>
<path d="M21.4691 23.3441C18.4314 24.1595 17.9388 24.6894 18.8419 26.0348C19.1292 26.4832 19.786 26.4425 22.4132 25.7086C24.2194 25.2194 25.7793 24.6894 25.9435 24.5264C26.4771 24.0779 25.7793 22.4472 25.0814 22.488C24.712 22.488 23.07 22.8957 21.4691 23.3441Z" fill="white"/>
<path d="M-6.10352e-05 25.3009V26.524H3.48917H6.97841V25.3009V24.0779H3.48917H-6.10352e-05V25.3009Z" fill="white"/>
<path d="M7.88154 25.1787C8.00469 26.2794 8.08679 26.3202 10.7961 26.4425L13.5464 26.5648V25.301V24.0779H10.6319H7.75839L7.88154 25.1787Z" fill="white"/>
</svg>
