<svg width="28" height="29" viewBox="0 0 28 29" fill="none" xmlns="http://www.w3.org/2000/svg">
<path d="M6.64257 6.68698C3.16211 10.1674 0.210332 13.4276 0.0781626 13.9563C-0.274289 15.2339 0.60684 16.6878 1.88448 16.9962C2.98589 17.2605 2.98589 17.3486 2.98589 22.0627C2.98589 26.4243 3.074 26.9089 3.95513 27.746C4.7922 28.539 5.40899 28.6271 8.05238 28.539L11.1363 28.4068L11.3566 24.2214L11.5769 20.0361H14H16.4231L16.6434 24.2214L16.8637 28.4068L19.9476 28.539C22.591 28.6271 23.2078 28.539 24.0449 27.746C24.926 26.9089 25.0141 26.4243 25.0141 22.0627C25.0141 17.3486 25.0141 17.2605 26.1155 16.9962C27.3932 16.6878 28.2743 15.2339 27.9218 13.9563C27.7897 13.4276 24.8379 10.1674 21.3574 6.68698C16.8196 2.23728 14.749 0.430964 14 0.430964C13.251 0.430964 11.1804 2.23728 6.64257 6.68698Z" fill="white"/>
</svg>
