<svg width="27" height="25" viewBox="0 0 27 25" fill="none" xmlns="http://www.w3.org/2000/svg">
<path d="M8.79017 1.34357C8.37702 2.12856 8.45965 2.16988 13.1283 2.16988C18.9538 2.16988 19.5322 2.41777 19.5322 4.81406V6.59063L21.6393 6.7972C24.9858 7.12773 25.1098 7.3343 25.2337 15.1842C25.3163 18.9439 25.5229 22.0013 25.6882 22.0013C25.8534 22.0013 26.184 21.7947 26.4732 21.5055C27.1755 20.8031 27.1755 6.67326 26.4732 5.9709C26.184 5.68169 24.9858 5.47511 23.7877 5.47511H21.5979V3.65723C21.5979 0.723837 21.1848 0.517262 14.7809 0.517262C9.6578 0.517262 9.20333 0.599892 8.79017 1.34357Z" fill="white"/>
<path d="M6.39398 3.49197C6.10477 3.78118 5.89819 4.77275 5.89819 5.76432V7.54088H3.87374C0.568507 7.54088 0.527191 7.70614 0.527191 16.0105C0.527191 22.9515 0.568507 23.1994 1.43613 23.8192C2.22112 24.3976 3.99769 24.4802 12.7566 24.4802C22.2591 24.4802 23.168 24.4389 23.7878 23.7365C24.3662 23.0755 24.4901 21.9186 24.4901 15.8866C24.4901 7.70614 24.4075 7.54088 21.1436 7.54088H19.1191V5.92958C19.1191 2.91355 19.2844 2.99619 12.7566 2.99619C8.74896 2.99619 6.7245 3.16145 6.39398 3.49197ZM16.227 6.50799C16.227 7.54088 16.1857 7.54088 12.5087 7.54088C8.83159 7.54088 8.79027 7.54088 8.79027 6.50799C8.79027 5.47511 8.83159 5.47511 12.5087 5.47511C16.1857 5.47511 16.227 5.47511 16.227 6.50799Z" fill="white"/>
</svg>
